# xmcd
#
# Track frame offsets:
#	150
#	21498
#	34014
#	43134
#	57964
#	78000
#	91420
#	108419
#	120286
#	139140
#	148786
#	172290
#	199215
#	209959
#	225369
#	241336
#
# Disc length: 3371 seconds
#
# Revision: 2
# Processed by: cddbd v1.4PL0 Copyright (c) Steve Scherf et al.
# Submitted via: EasyCDDAExtractor 5.1.0
#
DISCID=e60d2910
DTITLE=Pablo Milanés  - Antología CD 1
DYEAR=2003
DGENRE=
TTITLE0=Yolanda
TTITLE1=Yo no te pido
TTITLE2=Canción(de que callada manera)
TTITLE3=Te quiero porque te quiero
TTITLE4=Amo esta isla
TTITLE5=Pobre del cantor
TTITLE6=A Salvador Allende en sucombate por la vida
TTITLE7=Amor
TTITLE8=Hablame de colores
TTITLE9=El tiempo, el implacable, el que pasó
TTITLE10=Homenaje
TTITLE11=Cuánto gané, cuánto perdí
TTITLE12=Si elpoeta eres tu
TTITLE13=Despertar
TTITLE14=Años
TTITLE15=Acuéstate, hazme sentir y derramame en cada poro de tu cuerpo
EXTD=
EXTT0=
EXTT1=
EXTT2=
EXTT3=
EXTT4=
EXTT5=
EXTT6=
EXTT7=
EXTT8=
EXTT9=
EXTT10=
EXTT11=
EXTT12=
EXTT13=
EXTT14=
EXTT15=
PLAYORDER=
